<svg width="357" height="229" viewBox="0 0 357 229" fill="none" xmlns="http://www.w3.org/2000/svg">
<g filter="url(#filter0_b_3_2)">
<rect x="5" y="5" width="347" height="219" stroke="black" stroke-width="10"/>
</g>
<path d="M48.9091 73.0455L40.0455 73.5909C39.8939 72.8333 39.5682 72.1515 39.0682 71.5455C38.5682 70.9242 37.9091 70.4318 37.0909 70.0682C36.2879 69.6894 35.3258 69.5 34.2045 69.5C32.7045 69.5 31.4394 69.8182 30.4091 70.4545C29.3788 71.0758 28.8636 71.9091 28.8636 72.9545C28.8636 73.7879 29.197 74.4924 29.8636 75.0682C30.5303 75.6439 31.6742 76.1061 33.2955 76.4545L39.6136 77.7273C43.0076 78.4242 45.5379 79.5455 47.2045 81.0909C48.8712 82.6364 49.7045 84.6667 49.7045 87.1818C49.7045 89.4697 49.0303 91.4773 47.6818 93.2045C46.3485 94.9318 44.5152 96.2803 42.1818 97.25C39.8636 98.2045 37.1894 98.6818 34.1591 98.6818C29.5379 98.6818 25.8561 97.7197 23.1136 95.7955C20.3864 93.8561 18.7879 91.2197 18.3182 87.8864L27.8409 87.3864C28.1288 88.7955 28.8258 89.8712 29.9318 90.6136C31.0379 91.3409 32.4545 91.7045 34.1818 91.7045C35.8788 91.7045 37.2424 91.3788 38.2727 90.7273C39.3182 90.0606 39.8485 89.2045 39.8636 88.1591C39.8485 87.2803 39.4773 86.5606 38.75 86C38.0227 85.4242 36.9015 84.9848 35.3864 84.6818L29.3409 83.4773C25.9318 82.7955 23.3939 81.6136 21.7273 79.9318C20.0758 78.25 19.25 76.1061 19.25 73.5C19.25 71.2576 19.8561 69.3258 21.0682 67.7045C22.2955 66.0833 24.0152 64.8333 26.2273 63.9545C28.4545 63.0758 31.0606 62.6364 34.0455 62.6364C38.4545 62.6364 41.9242 63.5682 44.4545 65.4318C47 67.2955 48.4848 69.8333 48.9091 73.0455ZM64.5739 87.9545L64.5966 76.3409H66.0057L77.1875 63.0909H88.3011L73.2784 80.6364H70.983L64.5739 87.9545ZM55.8011 98V51.4545H65.483V98H55.8011ZM77.6193 98L67.3466 82.7955L73.8011 75.9545L88.9602 98H77.6193ZM107.523 98.6818C103.932 98.6818 100.841 97.9545 98.25 96.5C95.6742 95.0303 93.6894 92.9545 92.2955 90.2727C90.9015 87.5758 90.2045 84.3864 90.2045 80.7045C90.2045 77.1136 90.9015 73.9621 92.2955 71.25C93.6894 68.5379 95.6515 66.4242 98.1818 64.9091C100.727 63.3939 103.712 62.6364 107.136 62.6364C109.439 62.6364 111.583 63.0076 113.568 63.75C115.568 64.4773 117.311 65.5758 118.795 67.0455C120.295 68.5152 121.462 70.3636 122.295 72.5909C123.129 74.803 123.545 77.3939 123.545 80.3636V83.0227H94.0682V77.0227H114.432C114.432 75.6288 114.129 74.3939 113.523 73.3182C112.917 72.2424 112.076 71.4015 111 70.7955C109.939 70.1742 108.705 69.8636 107.295 69.8636C105.826 69.8636 104.523 70.2045 103.386 70.8864C102.265 71.553 101.386 72.4545 100.75 73.5909C100.114 74.7121 99.7879 75.9621 99.7727 77.3409V83.0455C99.7727 84.7727 100.091 86.2652 100.727 87.5227C101.379 88.7803 102.295 89.75 103.477 90.4318C104.659 91.1136 106.061 91.4545 107.682 91.4545C108.758 91.4545 109.742 91.303 110.636 91C111.53 90.697 112.295 90.2424 112.932 89.6364C113.568 89.0303 114.053 88.2879 114.386 87.4091L123.341 88C122.886 90.1515 121.955 92.0303 120.545 93.6364C119.152 95.2273 117.348 96.4697 115.136 97.3636C112.939 98.2424 110.402 98.6818 107.523 98.6818ZM129.864 111.091V63.0909H139.409V68.9545H139.841C140.265 68.0152 140.879 67.0606 141.682 66.0909C142.5 65.1061 143.561 64.2879 144.864 63.6364C146.182 62.9697 147.818 62.6364 149.773 62.6364C152.318 62.6364 154.667 63.303 156.818 64.6364C158.97 65.9545 160.689 67.947 161.977 70.6136C163.265 73.2652 163.909 76.5909 163.909 80.5909C163.909 84.4848 163.28 87.7727 162.023 90.4545C160.78 93.1212 159.083 95.1439 156.932 96.5227C154.795 97.8864 152.402 98.5682 149.75 98.5682C147.871 98.5682 146.273 98.2576 144.955 97.6364C143.652 97.0152 142.583 96.2348 141.75 95.2955C140.917 94.3409 140.28 93.3788 139.841 92.4091H139.545V111.091H129.864ZM139.341 80.5455C139.341 82.6212 139.629 84.4318 140.205 85.9773C140.78 87.5227 141.614 88.7273 142.705 89.5909C143.795 90.4394 145.121 90.8636 146.682 90.8636C148.258 90.8636 149.591 90.4318 150.682 89.5682C151.773 88.6894 152.598 87.4773 153.159 85.9318C153.735 84.3712 154.023 82.5758 154.023 80.5455C154.023 78.5303 153.742 76.7576 153.182 75.2273C152.621 73.697 151.795 72.5 150.705 71.6364C149.614 70.7727 148.273 70.3409 146.682 70.3409C145.106 70.3409 143.773 70.7576 142.682 71.5909C141.606 72.4242 140.78 73.6061 140.205 75.1364C139.629 76.6667 139.341 78.4697 139.341 80.5455ZM235.074 49.2727L220.074 105H211.733L226.733 49.2727H235.074ZM300.085 98.6818C296.494 98.6818 293.403 97.9545 290.812 96.5C288.237 95.0303 286.252 92.9545 284.858 90.2727C283.464 87.5758 282.767 84.3864 282.767 80.7045C282.767 77.1136 283.464 73.9621 284.858 71.25C286.252 68.5379 288.214 66.4242 290.744 64.9091C293.29 63.3939 296.275 62.6364 299.699 62.6364C302.002 62.6364 304.146 63.0076 306.131 63.75C308.131 64.4773 309.873 65.5758 311.358 67.0455C312.858 68.5152 314.025 70.3636 314.858 72.5909C315.691 74.803 316.108 77.3939 316.108 80.3636V83.0227H286.631V77.0227H306.994C306.994 75.6288 306.691 74.3939 306.085 73.3182C305.479 72.2424 304.638 71.4015 303.562 70.7955C302.502 70.1742 301.267 69.8636 299.858 69.8636C298.388 69.8636 297.085 70.2045 295.949 70.8864C294.828 71.553 293.949 72.4545 293.312 73.5909C292.676 74.7121 292.35 75.9621 292.335 77.3409V83.0455C292.335 84.7727 292.653 86.2652 293.29 87.5227C293.941 88.7803 294.858 89.75 296.04 90.4318C297.222 91.1136 298.623 91.4545 300.244 91.4545C301.32 91.4545 302.305 91.303 303.199 91C304.093 90.697 304.858 90.2424 305.494 89.6364C306.131 89.0303 306.616 88.2879 306.949 87.4091L315.903 88C315.449 90.1515 314.517 92.0303 313.108 93.6364C311.714 95.2273 309.911 96.4697 307.699 97.3636C305.502 98.2424 302.964 98.6818 300.085 98.6818ZM295.994 58.5909L300.812 48.25H309.767L302.835 58.5909H295.994ZM32.7273 175.568C30.0758 175.568 27.6742 174.886 25.5227 173.523C23.3864 172.144 21.6894 170.121 20.4318 167.455C19.1894 164.773 18.5682 161.485 18.5682 157.591C18.5682 153.591 19.2121 150.265 20.5 147.614C21.7879 144.947 23.5 142.955 25.6364 141.636C27.7879 140.303 30.1439 139.636 32.7045 139.636C34.6591 139.636 36.2879 139.97 37.5909 140.636C38.9091 141.288 39.9697 142.106 40.7727 143.091C41.5909 144.061 42.2121 145.015 42.6364 145.955H42.9318V128.455H52.5909V175H43.0455V169.409H42.6364C42.1818 170.379 41.5379 171.341 40.7045 172.295C39.8864 173.235 38.8182 174.015 37.5 174.636C36.197 175.258 34.6061 175.568 32.7273 175.568ZM35.7955 167.864C37.3561 167.864 38.6742 167.439 39.75 166.591C40.8409 165.727 41.6742 164.523 42.25 162.977C42.8409 161.432 43.1364 159.621 43.1364 157.545C43.1364 155.47 42.8485 153.667 42.2727 152.136C41.697 150.606 40.8636 149.424 39.7727 148.591C38.6818 147.758 37.3561 147.341 35.7955 147.341C34.2045 147.341 32.8636 147.773 31.7727 148.636C30.6818 149.5 29.8561 150.697 29.2955 152.227C28.7348 153.758 28.4545 155.53 28.4545 157.545C28.4545 159.576 28.7348 161.371 29.2955 162.932C29.8712 164.477 30.697 165.689 31.7727 166.568C32.8636 167.432 34.2045 167.864 35.7955 167.864ZM76.4602 175.682C72.8693 175.682 69.7784 174.955 67.1875 173.5C64.6117 172.03 62.6269 169.955 61.233 167.273C59.839 164.576 59.142 161.386 59.142 157.705C59.142 154.114 59.839 150.962 61.233 148.25C62.6269 145.538 64.589 143.424 67.1193 141.909C69.6648 140.394 72.6496 139.636 76.0739 139.636C78.3769 139.636 80.5208 140.008 82.5057 140.75C84.5057 141.477 86.2481 142.576 87.733 144.045C89.233 145.515 90.3996 147.364 91.233 149.591C92.0663 151.803 92.483 154.394 92.483 157.364V160.023H63.0057V154.023H83.3693C83.3693 152.629 83.0663 151.394 82.4602 150.318C81.8542 149.242 81.0133 148.402 79.9375 147.795C78.8769 147.174 77.642 146.864 76.233 146.864C74.7633 146.864 73.4602 147.205 72.3239 147.886C71.2027 148.553 70.3239 149.455 69.6875 150.591C69.0511 151.712 68.7254 152.962 68.7102 154.341V160.045C68.7102 161.773 69.0284 163.265 69.6648 164.523C70.3163 165.78 71.233 166.75 72.4148 167.432C73.5966 168.114 74.9981 168.455 76.6193 168.455C77.6951 168.455 78.6799 168.303 79.5739 168C80.4678 167.697 81.233 167.242 81.8693 166.636C82.5057 166.03 82.9905 165.288 83.3239 164.409L92.2784 165C91.8239 167.152 90.892 169.03 89.483 170.636C88.089 172.227 86.286 173.47 84.0739 174.364C81.8769 175.242 79.339 175.682 76.4602 175.682ZM130.409 140.091L118.205 175H107.295L95.0909 140.091H105.318L112.568 165.068H112.932L120.159 140.091H130.409ZM150.148 175.682C146.557 175.682 143.466 174.955 140.875 173.5C138.299 172.03 136.314 169.955 134.92 167.273C133.527 164.576 132.83 161.386 132.83 157.705C132.83 154.114 133.527 150.962 134.92 148.25C136.314 145.538 138.277 143.424 140.807 141.909C143.352 140.394 146.337 139.636 149.761 139.636C152.064 139.636 154.208 140.008 156.193 140.75C158.193 141.477 159.936 142.576 161.42 144.045C162.92 145.515 164.087 147.364 164.92 149.591C165.754 151.803 166.17 154.394 166.17 157.364V160.023H136.693V154.023H157.057C157.057 152.629 156.754 151.394 156.148 150.318C155.542 149.242 154.701 148.402 153.625 147.795C152.564 147.174 151.33 146.864 149.92 146.864C148.451 146.864 147.148 147.205 146.011 147.886C144.89 148.553 144.011 149.455 143.375 150.591C142.739 151.712 142.413 152.962 142.398 154.341V160.045C142.398 161.773 142.716 163.265 143.352 164.523C144.004 165.78 144.92 166.75 146.102 167.432C147.284 168.114 148.686 168.455 150.307 168.455C151.383 168.455 152.367 168.303 153.261 168C154.155 167.697 154.92 167.242 155.557 166.636C156.193 166.03 156.678 165.288 157.011 164.409L165.966 165C165.511 167.152 164.58 169.03 163.17 170.636C161.777 172.227 159.973 173.47 157.761 174.364C155.564 175.242 153.027 175.682 150.148 175.682Z" fill="black"/>
<path d="M182.17 128.455V175H172.489V128.455H182.17ZM205.699 175.682C202.169 175.682 199.116 174.932 196.54 173.432C193.979 171.917 192.002 169.811 190.608 167.114C189.214 164.402 188.517 161.258 188.517 157.682C188.517 154.076 189.214 150.924 190.608 148.227C192.002 145.515 193.979 143.409 196.54 141.909C199.116 140.394 202.169 139.636 205.699 139.636C209.229 139.636 212.275 140.394 214.835 141.909C217.411 143.409 219.396 145.515 220.79 148.227C222.184 150.924 222.881 154.076 222.881 157.682C222.881 161.258 222.184 164.402 220.79 167.114C219.396 169.811 217.411 171.917 214.835 173.432C212.275 174.932 209.229 175.682 205.699 175.682ZM205.744 168.182C207.35 168.182 208.691 167.727 209.767 166.818C210.843 165.894 211.653 164.636 212.199 163.045C212.759 161.455 213.04 159.644 213.04 157.614C213.04 155.583 212.759 153.773 212.199 152.182C211.653 150.591 210.843 149.333 209.767 148.409C208.691 147.485 207.35 147.023 205.744 147.023C204.123 147.023 202.759 147.485 201.653 148.409C200.563 149.333 199.737 150.591 199.176 152.182C198.631 153.773 198.358 155.583 198.358 157.614C198.358 159.644 198.631 161.455 199.176 163.045C199.737 164.636 200.563 165.894 201.653 166.818C202.759 167.727 204.123 168.182 205.744 168.182ZM229.176 188.091V140.091H238.722V145.955H239.153C239.578 145.015 240.191 144.061 240.994 143.091C241.813 142.106 242.873 141.288 244.176 140.636C245.494 139.97 247.131 139.636 249.085 139.636C251.631 139.636 253.979 140.303 256.131 141.636C258.282 142.955 260.002 144.947 261.29 147.614C262.578 150.265 263.222 153.591 263.222 157.591C263.222 161.485 262.593 164.773 261.335 167.455C260.093 170.121 258.396 172.144 256.244 173.523C254.108 174.886 251.714 175.568 249.062 175.568C247.184 175.568 245.585 175.258 244.267 174.636C242.964 174.015 241.896 173.235 241.062 172.295C240.229 171.341 239.593 170.379 239.153 169.409H238.858V188.091H229.176ZM238.653 157.545C238.653 159.621 238.941 161.432 239.517 162.977C240.093 164.523 240.926 165.727 242.017 166.591C243.108 167.439 244.434 167.864 245.994 167.864C247.57 167.864 248.903 167.432 249.994 166.568C251.085 165.689 251.911 164.477 252.472 162.932C253.047 161.371 253.335 159.576 253.335 157.545C253.335 155.53 253.055 153.758 252.494 152.227C251.934 150.697 251.108 149.5 250.017 148.636C248.926 147.773 247.585 147.341 245.994 147.341C244.419 147.341 243.085 147.758 241.994 148.591C240.919 149.424 240.093 150.606 239.517 152.136C238.941 153.667 238.653 155.47 238.653 157.545ZM285.585 175.682C281.994 175.682 278.903 174.955 276.312 173.5C273.737 172.03 271.752 169.955 270.358 167.273C268.964 164.576 268.267 161.386 268.267 157.705C268.267 154.114 268.964 150.962 270.358 148.25C271.752 145.538 273.714 143.424 276.244 141.909C278.79 140.394 281.775 139.636 285.199 139.636C287.502 139.636 289.646 140.008 291.631 140.75C293.631 141.477 295.373 142.576 296.858 144.045C298.358 145.515 299.525 147.364 300.358 149.591C301.191 151.803 301.608 154.394 301.608 157.364V160.023H272.131V154.023H292.494C292.494 152.629 292.191 151.394 291.585 150.318C290.979 149.242 290.138 148.402 289.062 147.795C288.002 147.174 286.767 146.864 285.358 146.864C283.888 146.864 282.585 147.205 281.449 147.886C280.328 148.553 279.449 149.455 278.812 150.591C278.176 151.712 277.85 152.962 277.835 154.341V160.045C277.835 161.773 278.153 163.265 278.79 164.523C279.441 165.78 280.358 166.75 281.54 167.432C282.722 168.114 284.123 168.455 285.744 168.455C286.82 168.455 287.805 168.303 288.699 168C289.593 167.697 290.358 167.242 290.994 166.636C291.631 166.03 292.116 165.288 292.449 164.409L301.403 165C300.949 167.152 300.017 169.03 298.608 170.636C297.214 172.227 295.411 173.47 293.199 174.364C291.002 175.242 288.464 175.682 285.585 175.682ZM307.926 175V140.091H317.312V146.182H317.676C318.313 144.015 319.381 142.379 320.881 141.273C322.381 140.152 324.108 139.591 326.062 139.591C326.547 139.591 327.07 139.621 327.631 139.682C328.191 139.742 328.684 139.826 329.108 139.932V148.523C328.653 148.386 328.025 148.265 327.222 148.159C326.419 148.053 325.684 148 325.017 148C323.593 148 322.32 148.311 321.199 148.932C320.093 149.538 319.214 150.386 318.562 151.477C317.926 152.568 317.608 153.826 317.608 155.25V175H307.926Z" fill="#7C4848"/>
<path d="M207.291 49.5732C206.832 49.2259 206.302 48.9642 205.731 48.8031C205.16 48.6421 204.56 48.5848 203.965 48.6346C203.37 48.6844 202.792 48.8403 202.263 49.0934C201.735 49.3465 201.266 49.6918 200.885 50.1095L178.169 74.8595C177.5 75.5976 177.135 76.5234 177.135 77.4788C177.135 78.4343 177.5 79.3601 178.169 80.0982L200.112 104.848C200.54 105.327 201.08 105.712 201.694 105.976C202.307 106.241 202.977 106.377 203.656 106.374C204.516 106.377 205.359 106.158 206.087 105.743C206.815 105.328 207.399 104.734 207.77 104.03C208.141 103.326 208.284 102.541 208.184 101.765C208.083 100.99 207.742 100.257 207.2 99.6507L187.528 77.4995L207.881 55.3895C208.264 54.9726 208.552 54.4914 208.73 53.9733C208.907 53.4552 208.97 52.9104 208.915 52.3701C208.86 51.8298 208.689 51.3047 208.41 50.8247C208.131 50.3448 207.751 49.9195 207.291 49.5732V49.5732Z" fill="#7C4848"/>
<path d="M266.989 74.9012L245.272 50.1512C244.897 49.7275 244.434 49.3752 243.909 49.1146C243.383 48.854 242.806 48.6903 242.211 48.6328C241.616 48.5753 241.014 48.6252 240.44 48.7796C239.866 48.934 239.331 49.1898 238.866 49.5325C238.4 49.8729 238.012 50.2937 237.725 50.7707C237.438 51.2477 237.257 51.7715 237.194 52.312C237.131 52.8525 237.185 53.399 237.356 53.9202C237.526 54.4413 237.807 54.9268 238.185 55.3487L257.584 77.5L237.231 99.6513C236.848 100.068 236.56 100.549 236.383 101.067C236.205 101.586 236.142 102.13 236.197 102.671C236.252 103.211 236.424 103.736 236.702 104.216C236.981 104.696 237.361 105.121 237.821 105.468C238.645 106.068 239.673 106.389 240.729 106.375C241.396 106.376 242.056 106.243 242.661 105.987C243.265 105.73 243.8 105.356 244.227 104.89L266.944 80.14C267.618 79.4067 267.992 78.4835 268 77.528C268.008 76.5726 267.651 75.6441 266.989 74.9012V74.9012Z" fill="#7C4848"/>
<defs>
<filter id="filter0_b_3_2" x="-4" y="-4" width="365" height="237" filterUnits="userSpaceOnUse" color-interpolation-filters="sRGB">
<feFlood flood-opacity="0" result="BackgroundImageFix"/>
<feGaussianBlur in="BackgroundImage" stdDeviation="2"/>
<feComposite in2="SourceAlpha" operator="in" result="effect1_backgroundBlur_3_2"/>
<feBlend mode="normal" in="SourceGraphic" in2="effect1_backgroundBlur_3_2" result="shape"/>
</filter>
</defs>
</svg>
